<mxfile host="app.diagrams.net" agent="Mozilla/5.0 (Windows NT 10.0; Win64; x64) AppleWebKit/537.36 (KHTML, like Gecko) Chrome/123.0.0.0 Safari/537.36" version="26.0.16">
  <diagram name="Страница — 1" id="LuoASYRlYhvjYxlGMsB3">
    <mxGraphModel dx="2000" dy="514" grid="1" gridSize="10" guides="1" tooltips="1" connect="1" arrows="1" fold="1" page="1" pageScale="1" pageWidth="827" pageHeight="1169" math="0" shadow="0">
      <root>
        <mxCell id="0" />
        <mxCell id="1" parent="0" />
        <mxCell id="ajeVH8oz3hy0WPWtNNqJ-9" value="Администратор&amp;nbsp;" style="shape=umlActor;verticalLabelPosition=bottom;verticalAlign=top;html=1;outlineConnect=0;" vertex="1" parent="1">
          <mxGeometry x="-297.5" y="990" width="30" height="60" as="geometry" />
        </mxCell>
        <mxCell id="ajeVH8oz3hy0WPWtNNqJ-10" value="" style="endArrow=none;html=1;rounded=0;entryX=0;entryY=0.5;entryDx=0;entryDy=0;exitX=0.5;exitY=0.5;exitDx=0;exitDy=0;exitPerimeter=0;" edge="1" parent="1" source="ajeVH8oz3hy0WPWtNNqJ-9" target="ajeVH8oz3hy0WPWtNNqJ-11">
          <mxGeometry width="50" height="50" relative="1" as="geometry">
            <mxPoint x="-57.5" y="1350" as="sourcePoint" />
            <mxPoint x="-220.000000000005" y="1020" as="targetPoint" />
          </mxGeometry>
        </mxCell>
        <mxCell id="ajeVH8oz3hy0WPWtNNqJ-11" value="Использовать права администратора" style="ellipse;whiteSpace=wrap;html=1;" vertex="1" parent="1">
          <mxGeometry x="-170" y="990" width="160" height="60" as="geometry" />
        </mxCell>
        <mxCell id="ajeVH8oz3hy0WPWtNNqJ-25" value="Клиент" style="shape=umlActor;verticalLabelPosition=bottom;verticalAlign=top;html=1;outlineConnect=0;" vertex="1" parent="1">
          <mxGeometry x="-297.5" y="1254" width="30" height="60" as="geometry" />
        </mxCell>
        <mxCell id="ajeVH8oz3hy0WPWtNNqJ-26" value="Редактирование профиля" style="ellipse;whiteSpace=wrap;html=1;" vertex="1" parent="1">
          <mxGeometry x="-242.5" y="1359" width="120" height="50" as="geometry" />
        </mxCell>
        <mxCell id="ajeVH8oz3hy0WPWtNNqJ-28" value="Выход из системы" style="ellipse;whiteSpace=wrap;html=1;" vertex="1" parent="1">
          <mxGeometry x="-155" y="1169" width="120" height="30" as="geometry" />
        </mxCell>
        <mxCell id="ajeVH8oz3hy0WPWtNNqJ-29" value="" style="endArrow=none;html=1;rounded=0;entryX=0.024;entryY=0.495;entryDx=0;entryDy=0;exitX=0.5;exitY=0.5;exitDx=0;exitDy=0;exitPerimeter=0;entryPerimeter=0;" edge="1" parent="1" source="ajeVH8oz3hy0WPWtNNqJ-25" target="ajeVH8oz3hy0WPWtNNqJ-30">
          <mxGeometry width="50" height="50" relative="1" as="geometry">
            <mxPoint x="-262" y="1293.33" as="sourcePoint" />
            <mxPoint x="-200" y="1284" as="targetPoint" />
          </mxGeometry>
        </mxCell>
        <mxCell id="ajeVH8oz3hy0WPWtNNqJ-30" value="Использовать права клиента" style="ellipse;whiteSpace=wrap;html=1;" vertex="1" parent="1">
          <mxGeometry x="-170" y="1259" width="135" height="50" as="geometry" />
        </mxCell>
        <mxCell id="ajeVH8oz3hy0WPWtNNqJ-31" value="" style="endArrow=none;dashed=1;html=1;rounded=0;exitX=0.632;exitY=1.009;exitDx=0;exitDy=0;exitPerimeter=0;entryX=0.439;entryY=-0.032;entryDx=0;entryDy=0;entryPerimeter=0;" edge="1" parent="1" source="ajeVH8oz3hy0WPWtNNqJ-30" target="ajeVH8oz3hy0WPWtNNqJ-57">
          <mxGeometry width="50" height="50" relative="1" as="geometry">
            <mxPoint x="-70" y="1229" as="sourcePoint" />
            <mxPoint x="-30" y="1440" as="targetPoint" />
          </mxGeometry>
        </mxCell>
        <mxCell id="ajeVH8oz3hy0WPWtNNqJ-32" value="" style="endArrow=none;dashed=1;html=1;rounded=0;exitX=0.604;exitY=0;exitDx=0;exitDy=0;exitPerimeter=0;" edge="1" parent="1" source="ajeVH8oz3hy0WPWtNNqJ-26">
          <mxGeometry width="50" height="50" relative="1" as="geometry">
            <mxPoint x="-70" y="1229" as="sourcePoint" />
            <mxPoint x="-120" y="1309" as="targetPoint" />
          </mxGeometry>
        </mxCell>
        <mxCell id="ajeVH8oz3hy0WPWtNNqJ-33" value="" style="endArrow=classic;html=1;rounded=0;" edge="1" parent="1">
          <mxGeometry width="50" height="50" relative="1" as="geometry">
            <mxPoint x="-80" y="1320" as="sourcePoint" />
            <mxPoint x="-85" y="1309" as="targetPoint" />
          </mxGeometry>
        </mxCell>
        <mxCell id="ajeVH8oz3hy0WPWtNNqJ-34" value="" style="endArrow=classic;html=1;rounded=0;" edge="1" parent="1">
          <mxGeometry width="50" height="50" relative="1" as="geometry">
            <mxPoint x="-130" y="1319" as="sourcePoint" />
            <mxPoint x="-120.08" y="1309" as="targetPoint" />
          </mxGeometry>
        </mxCell>
        <mxCell id="ajeVH8oz3hy0WPWtNNqJ-35" value="&amp;lt;&amp;lt;Extend&amp;gt;&amp;gt;" style="edgeLabel;html=1;align=center;verticalAlign=middle;resizable=0;points=[];" vertex="1" connectable="0" parent="1">
          <mxGeometry x="-39.99778308278536" y="1369.996915234411" as="geometry">
            <mxPoint x="-14" as="offset" />
          </mxGeometry>
        </mxCell>
        <mxCell id="ajeVH8oz3hy0WPWtNNqJ-36" value="&amp;lt;&amp;lt;Extend&amp;gt;&amp;gt;" style="edgeLabel;html=1;align=center;verticalAlign=middle;resizable=0;points=[];" vertex="1" connectable="0" parent="1">
          <mxGeometry x="-129.99778308278536" y="1338.996915234411" as="geometry">
            <mxPoint x="-14" as="offset" />
          </mxGeometry>
        </mxCell>
        <mxCell id="ajeVH8oz3hy0WPWtNNqJ-37" value="" style="endArrow=none;dashed=1;html=1;rounded=0;entryX=0.5;entryY=0;entryDx=0;entryDy=0;exitX=0.632;exitY=1.009;exitDx=0;exitDy=0;exitPerimeter=0;" edge="1" parent="1" target="ajeVH8oz3hy0WPWtNNqJ-30">
          <mxGeometry width="50" height="50" relative="1" as="geometry">
            <mxPoint x="-102.76" y="1199" as="sourcePoint" />
            <mxPoint x="-102.76" y="1254" as="targetPoint" />
          </mxGeometry>
        </mxCell>
        <mxCell id="ajeVH8oz3hy0WPWtNNqJ-38" value="&amp;lt;&amp;lt;Extend&amp;gt;&amp;gt;" style="edgeLabel;html=1;align=center;verticalAlign=middle;resizable=0;points=[];" vertex="1" connectable="0" parent="ajeVH8oz3hy0WPWtNNqJ-37">
          <mxGeometry x="-0.0696" y="-1" relative="1" as="geometry">
            <mxPoint as="offset" />
          </mxGeometry>
        </mxCell>
        <mxCell id="ajeVH8oz3hy0WPWtNNqJ-39" value="" style="endArrow=classic;html=1;rounded=0;" edge="1" parent="1">
          <mxGeometry width="50" height="50" relative="1" as="geometry">
            <mxPoint x="-102.58" y="1249" as="sourcePoint" />
            <mxPoint x="-102.58" y="1259" as="targetPoint" />
          </mxGeometry>
        </mxCell>
        <mxCell id="ajeVH8oz3hy0WPWtNNqJ-42" value="Гость" style="shape=umlActor;verticalLabelPosition=bottom;verticalAlign=top;html=1;outlineConnect=0;" vertex="1" parent="1">
          <mxGeometry x="-297.5" y="1550" width="30" height="60" as="geometry" />
        </mxCell>
        <mxCell id="ajeVH8oz3hy0WPWtNNqJ-43" value="Использовать права гостя" style="ellipse;whiteSpace=wrap;html=1;" vertex="1" parent="1">
          <mxGeometry x="-170" y="1550" width="100" height="60" as="geometry" />
        </mxCell>
        <mxCell id="ajeVH8oz3hy0WPWtNNqJ-44" value="" style="endArrow=none;html=1;rounded=0;entryX=0.5;entryY=0.5;entryDx=0;entryDy=0;entryPerimeter=0;exitX=0;exitY=0.5;exitDx=0;exitDy=0;" edge="1" parent="1" source="ajeVH8oz3hy0WPWtNNqJ-43" target="ajeVH8oz3hy0WPWtNNqJ-42">
          <mxGeometry width="50" height="50" relative="1" as="geometry">
            <mxPoint x="-200" y="1580" as="sourcePoint" />
            <mxPoint x="90" y="1590" as="targetPoint" />
          </mxGeometry>
        </mxCell>
        <mxCell id="ajeVH8oz3hy0WPWtNNqJ-45" value="Просмотр информации о компании" style="ellipse;whiteSpace=wrap;html=1;" vertex="1" parent="1">
          <mxGeometry x="30" y="1555" width="125" height="50" as="geometry" />
        </mxCell>
        <mxCell id="ajeVH8oz3hy0WPWtNNqJ-46" value="Создание нового аккаунта" style="ellipse;whiteSpace=wrap;html=1;" vertex="1" parent="1">
          <mxGeometry x="-50" y="1673" width="125" height="50" as="geometry" />
        </mxCell>
        <mxCell id="ajeVH8oz3hy0WPWtNNqJ-47" value="Ввод персональных данных" style="ellipse;whiteSpace=wrap;html=1;" vertex="1" parent="1">
          <mxGeometry x="215" y="1670" width="132.5" height="56" as="geometry" />
        </mxCell>
        <mxCell id="ajeVH8oz3hy0WPWtNNqJ-48" value="" style="endArrow=none;dashed=1;html=1;rounded=0;entryX=1;entryY=0.5;entryDx=0;entryDy=0;exitX=0;exitY=0.5;exitDx=0;exitDy=0;" edge="1" parent="1" source="ajeVH8oz3hy0WPWtNNqJ-47" target="ajeVH8oz3hy0WPWtNNqJ-46">
          <mxGeometry width="50" height="50" relative="1" as="geometry">
            <mxPoint x="210" y="1695" as="sourcePoint" />
            <mxPoint x="190" y="1660" as="targetPoint" />
          </mxGeometry>
        </mxCell>
        <mxCell id="ajeVH8oz3hy0WPWtNNqJ-49" value="" style="endArrow=none;dashed=1;html=1;rounded=0;entryX=1;entryY=1;entryDx=0;entryDy=0;" edge="1" parent="1" target="ajeVH8oz3hy0WPWtNNqJ-43">
          <mxGeometry width="50" height="50" relative="1" as="geometry">
            <mxPoint x="-40" y="1680" as="sourcePoint" />
            <mxPoint x="190" y="1660" as="targetPoint" />
          </mxGeometry>
        </mxCell>
        <mxCell id="ajeVH8oz3hy0WPWtNNqJ-50" value="" style="endArrow=classic;html=1;rounded=0;entryX=1;entryY=1;entryDx=0;entryDy=0;" edge="1" parent="1" target="ajeVH8oz3hy0WPWtNNqJ-43">
          <mxGeometry width="50" height="50" relative="1" as="geometry">
            <mxPoint x="-80" y="1610" as="sourcePoint" />
            <mxPoint x="190" y="1660" as="targetPoint" />
          </mxGeometry>
        </mxCell>
        <mxCell id="ajeVH8oz3hy0WPWtNNqJ-51" value="&amp;lt;&amp;lt;Extend&amp;gt;&amp;gt;" style="edgeLabel;html=1;align=center;verticalAlign=middle;resizable=0;points=[];" vertex="1" connectable="0" parent="1">
          <mxGeometry x="-49.99778308278536" y="1639.996915234411" as="geometry">
            <mxPoint x="-6" as="offset" />
          </mxGeometry>
        </mxCell>
        <mxCell id="ajeVH8oz3hy0WPWtNNqJ-52" value="&amp;lt;&amp;lt;Include&amp;gt;&amp;gt;" style="edgeLabel;html=1;align=center;verticalAlign=middle;resizable=0;points=[];" vertex="1" connectable="0" parent="1">
          <mxGeometry x="140.00221691721464" y="1703.996915234411" as="geometry">
            <mxPoint x="-3" y="-4" as="offset" />
          </mxGeometry>
        </mxCell>
        <mxCell id="ajeVH8oz3hy0WPWtNNqJ-53" value="" style="endArrow=classic;html=1;rounded=0;" edge="1" parent="1">
          <mxGeometry width="50" height="50" relative="1" as="geometry">
            <mxPoint x="205" y="1697.92" as="sourcePoint" />
            <mxPoint x="215" y="1697.92" as="targetPoint" />
            <Array as="points" />
          </mxGeometry>
        </mxCell>
        <mxCell id="ajeVH8oz3hy0WPWtNNqJ-54" value="" style="endArrow=none;dashed=1;html=1;rounded=0;entryX=1;entryY=0.5;entryDx=0;entryDy=0;exitX=0;exitY=0.5;exitDx=0;exitDy=0;" edge="1" parent="1" source="ajeVH8oz3hy0WPWtNNqJ-45" target="ajeVH8oz3hy0WPWtNNqJ-43">
          <mxGeometry width="50" height="50" relative="1" as="geometry">
            <mxPoint x="-20" y="1610" as="sourcePoint" />
            <mxPoint x="30" y="1560" as="targetPoint" />
          </mxGeometry>
        </mxCell>
        <mxCell id="ajeVH8oz3hy0WPWtNNqJ-55" value="" style="endArrow=classic;html=1;rounded=0;" edge="1" parent="1">
          <mxGeometry width="50" height="50" relative="1" as="geometry">
            <mxPoint x="-60" y="1580" as="sourcePoint" />
            <mxPoint x="-70" y="1580" as="targetPoint" />
          </mxGeometry>
        </mxCell>
        <mxCell id="ajeVH8oz3hy0WPWtNNqJ-56" value="&amp;lt;&amp;lt;Extend&amp;gt;&amp;gt;" style="edgeLabel;html=1;align=center;verticalAlign=middle;resizable=0;points=[];" vertex="1" connectable="0" parent="1">
          <mxGeometry x="-9.99778308278536" y="1579.996915234411" as="geometry">
            <mxPoint x="-6" as="offset" />
          </mxGeometry>
        </mxCell>
        <mxCell id="ajeVH8oz3hy0WPWtNNqJ-57" value="Просмотр каталога услуг" style="ellipse;whiteSpace=wrap;html=1;" vertex="1" parent="1">
          <mxGeometry x="-80" y="1450" width="125" height="50" as="geometry" />
        </mxCell>
        <mxCell id="ajeVH8oz3hy0WPWtNNqJ-58" value="" style="endArrow=none;dashed=1;html=1;rounded=0;exitX=0.26;exitY=0.95;exitDx=0;exitDy=0;exitPerimeter=0;" edge="1" parent="1" source="ajeVH8oz3hy0WPWtNNqJ-57">
          <mxGeometry width="50" height="50" relative="1" as="geometry">
            <mxPoint x="-50" y="1500" as="sourcePoint" />
            <mxPoint x="-100" y="1550" as="targetPoint" />
          </mxGeometry>
        </mxCell>
        <mxCell id="ajeVH8oz3hy0WPWtNNqJ-59" value="" style="endArrow=classic;html=1;rounded=0;entryX=0.7;entryY=0;entryDx=0;entryDy=0;entryPerimeter=0;" edge="1" parent="1" target="ajeVH8oz3hy0WPWtNNqJ-43">
          <mxGeometry width="50" height="50" relative="1" as="geometry">
            <mxPoint x="-90" y="1540" as="sourcePoint" />
            <mxPoint x="-60" y="1515" as="targetPoint" />
          </mxGeometry>
        </mxCell>
        <mxCell id="ajeVH8oz3hy0WPWtNNqJ-60" value="&amp;lt;&amp;lt;Extend&amp;gt;&amp;gt;" style="edgeLabel;html=1;align=center;verticalAlign=middle;resizable=0;points=[];" vertex="1" connectable="0" parent="1">
          <mxGeometry x="-59.99778308278536" y="1519.996915234411" as="geometry">
            <mxPoint x="-6" as="offset" />
          </mxGeometry>
        </mxCell>
        <mxCell id="ajeVH8oz3hy0WPWtNNqJ-61" value="Оформление услуг" style="ellipse;whiteSpace=wrap;html=1;" vertex="1" parent="1">
          <mxGeometry x="45" y="1399" width="120" height="30" as="geometry" />
        </mxCell>
        <mxCell id="ajeVH8oz3hy0WPWtNNqJ-62" value="Создание нового заказа на грузоперевозку." style="ellipse;whiteSpace=wrap;html=1;" vertex="1" parent="1">
          <mxGeometry x="40" y="1280" width="175" height="70" as="geometry" />
        </mxCell>
        <mxCell id="ajeVH8oz3hy0WPWtNNqJ-63" value="Указание деталей груза, маршрута и услуг" style="ellipse;whiteSpace=wrap;html=1;" vertex="1" parent="1">
          <mxGeometry x="60" y="1470" width="175" height="70" as="geometry" />
        </mxCell>
        <mxCell id="ajeVH8oz3hy0WPWtNNqJ-66" value="" style="endArrow=none;dashed=1;html=1;rounded=0;entryX=0.925;entryY=0.191;entryDx=0;entryDy=0;entryPerimeter=0;exitX=0.226;exitY=0.909;exitDx=0;exitDy=0;exitPerimeter=0;" edge="1" parent="1" source="ajeVH8oz3hy0WPWtNNqJ-61" target="ajeVH8oz3hy0WPWtNNqJ-57">
          <mxGeometry width="50" height="50" relative="1" as="geometry">
            <mxPoint x="70" y="1430" as="sourcePoint" />
            <mxPoint x="-90" y="1560" as="targetPoint" />
          </mxGeometry>
        </mxCell>
        <mxCell id="ajeVH8oz3hy0WPWtNNqJ-67" value="" style="endArrow=classic;html=1;rounded=0;entryX=0.7;entryY=0;entryDx=0;entryDy=0;entryPerimeter=0;" edge="1" parent="1">
          <mxGeometry width="50" height="50" relative="1" as="geometry">
            <mxPoint x="45" y="1450" as="sourcePoint" />
            <mxPoint x="35" y="1460" as="targetPoint" />
          </mxGeometry>
        </mxCell>
        <mxCell id="ajeVH8oz3hy0WPWtNNqJ-68" value="" style="endArrow=none;dashed=1;html=1;rounded=0;entryX=0.5;entryY=0;entryDx=0;entryDy=0;exitX=0.521;exitY=0.978;exitDx=0;exitDy=0;exitPerimeter=0;" edge="1" parent="1" source="ajeVH8oz3hy0WPWtNNqJ-62" target="ajeVH8oz3hy0WPWtNNqJ-61">
          <mxGeometry width="50" height="50" relative="1" as="geometry">
            <mxPoint x="82" y="1436" as="sourcePoint" />
            <mxPoint x="46" y="1470" as="targetPoint" />
          </mxGeometry>
        </mxCell>
        <mxCell id="ajeVH8oz3hy0WPWtNNqJ-69" value="" style="endArrow=none;dashed=1;html=1;rounded=0;exitX=0.627;exitY=0.954;exitDx=0;exitDy=0;exitPerimeter=0;entryX=0.343;entryY=0;entryDx=0;entryDy=0;entryPerimeter=0;" edge="1" parent="1" source="ajeVH8oz3hy0WPWtNNqJ-61" target="ajeVH8oz3hy0WPWtNNqJ-63">
          <mxGeometry width="50" height="50" relative="1" as="geometry">
            <mxPoint x="117.41" y="1429" as="sourcePoint" />
            <mxPoint x="120" y="1450" as="targetPoint" />
          </mxGeometry>
        </mxCell>
        <mxCell id="ajeVH8oz3hy0WPWtNNqJ-70" value="" style="endArrow=classic;html=1;rounded=0;entryX=0.344;entryY=0.036;entryDx=0;entryDy=0;entryPerimeter=0;" edge="1" parent="1" target="ajeVH8oz3hy0WPWtNNqJ-63">
          <mxGeometry width="50" height="50" relative="1" as="geometry">
            <mxPoint x="120" y="1460" as="sourcePoint" />
            <mxPoint x="120" y="1470" as="targetPoint" />
          </mxGeometry>
        </mxCell>
        <mxCell id="ajeVH8oz3hy0WPWtNNqJ-71" value="" style="endArrow=classic;html=1;rounded=0;entryX=0.7;entryY=0;entryDx=0;entryDy=0;entryPerimeter=0;" edge="1" parent="1">
          <mxGeometry width="50" height="50" relative="1" as="geometry">
            <mxPoint x="122.58" y="1366" as="sourcePoint" />
            <mxPoint x="130" y="1350" as="targetPoint" />
          </mxGeometry>
        </mxCell>
        <mxCell id="ajeVH8oz3hy0WPWtNNqJ-72" value="Управление каталогом услуг" style="ellipse;whiteSpace=wrap;html=1;" vertex="1" parent="1">
          <mxGeometry x="-150" y="740" width="160" height="60" as="geometry" />
        </mxCell>
        <mxCell id="ajeVH8oz3hy0WPWtNNqJ-73" value="Управление типами грузов" style="ellipse;whiteSpace=wrap;html=1;" vertex="1" parent="1">
          <mxGeometry x="-282.5" y="840" width="160" height="60" as="geometry" />
        </mxCell>
        <mxCell id="ajeVH8oz3hy0WPWtNNqJ-74" value="Управление заказами" style="ellipse;whiteSpace=wrap;html=1;" vertex="1" parent="1">
          <mxGeometry x="55" y="870" width="160" height="60" as="geometry" />
        </mxCell>
        <mxCell id="ajeVH8oz3hy0WPWtNNqJ-75" value="Управление маршрутами" style="ellipse;whiteSpace=wrap;html=1;" vertex="1" parent="1">
          <mxGeometry x="165" y="990" width="160" height="60" as="geometry" />
        </mxCell>
        <mxCell id="ajeVH8oz3hy0WPWtNNqJ-76" value="Управление данными о водителях" style="ellipse;whiteSpace=wrap;html=1;" vertex="1" parent="1">
          <mxGeometry x="90" y="1060" width="160" height="60" as="geometry" />
        </mxCell>
        <mxCell id="ajeVH8oz3hy0WPWtNNqJ-78" value="Управление данными о транспортных средствах" style="ellipse;whiteSpace=wrap;html=1;" vertex="1" parent="1">
          <mxGeometry x="-35" y="1130" width="160" height="60" as="geometry" />
        </mxCell>
        <mxCell id="ajeVH8oz3hy0WPWtNNqJ-80" value="&amp;lt;&amp;lt;Extend&amp;gt;&amp;gt;" style="edgeLabel;html=1;align=center;verticalAlign=middle;resizable=0;points=[];" vertex="1" connectable="0" parent="1">
          <mxGeometry x="60.00221691721464" y="1439.996915234411" as="geometry">
            <mxPoint x="-6" as="offset" />
          </mxGeometry>
        </mxCell>
        <mxCell id="ajeVH8oz3hy0WPWtNNqJ-81" value="&amp;lt;&amp;lt;Include&amp;gt;&amp;gt;" style="edgeLabel;html=1;align=center;verticalAlign=middle;resizable=0;points=[];" vertex="1" connectable="0" parent="1">
          <mxGeometry x="130.00221691721464" y="1449.996915234411" as="geometry">
            <mxPoint x="-6" y="-2" as="offset" />
          </mxGeometry>
        </mxCell>
        <mxCell id="ajeVH8oz3hy0WPWtNNqJ-82" value="&amp;lt;&amp;lt;Include&amp;gt;&amp;gt;" style="edgeLabel;html=1;align=center;verticalAlign=middle;resizable=0;points=[];" vertex="1" connectable="0" parent="1">
          <mxGeometry x="130.00221691721464" y="1369.996915234411" as="geometry">
            <mxPoint x="-6" as="offset" />
          </mxGeometry>
        </mxCell>
        <mxCell id="ajeVH8oz3hy0WPWtNNqJ-83" value="" style="endArrow=none;dashed=1;html=1;rounded=0;entryX=0.463;entryY=-0.008;entryDx=0;entryDy=0;exitX=0.451;exitY=0.987;exitDx=0;exitDy=0;exitPerimeter=0;entryPerimeter=0;" edge="1" parent="1" source="ajeVH8oz3hy0WPWtNNqJ-11" target="ajeVH8oz3hy0WPWtNNqJ-28">
          <mxGeometry width="50" height="50" relative="1" as="geometry">
            <mxPoint x="-94.98" y="1049" as="sourcePoint" />
            <mxPoint x="-95.22" y="1109" as="targetPoint" />
          </mxGeometry>
        </mxCell>
        <mxCell id="ajeVH8oz3hy0WPWtNNqJ-84" value="&amp;lt;&amp;lt;Extend&amp;gt;&amp;gt;" style="edgeLabel;html=1;align=center;verticalAlign=middle;resizable=0;points=[];" vertex="1" connectable="0" parent="ajeVH8oz3hy0WPWtNNqJ-83">
          <mxGeometry x="-0.0696" y="-1" relative="1" as="geometry">
            <mxPoint as="offset" />
          </mxGeometry>
        </mxCell>
        <mxCell id="ajeVH8oz3hy0WPWtNNqJ-85" value="" style="endArrow=classic;html=1;rounded=0;" edge="1" parent="1">
          <mxGeometry width="50" height="50" relative="1" as="geometry">
            <mxPoint x="-97" y="1060" as="sourcePoint" />
            <mxPoint x="-97.5" y="1050" as="targetPoint" />
          </mxGeometry>
        </mxCell>
        <mxCell id="ajeVH8oz3hy0WPWtNNqJ-86" value="" style="endArrow=none;dashed=1;html=1;rounded=0;exitX=0.641;exitY=0.984;exitDx=0;exitDy=0;exitPerimeter=0;entryX=0.438;entryY=0;entryDx=0;entryDy=0;entryPerimeter=0;" edge="1" parent="1" source="ajeVH8oz3hy0WPWtNNqJ-73" target="ajeVH8oz3hy0WPWtNNqJ-11">
          <mxGeometry width="50" height="50" relative="1" as="geometry">
            <mxPoint x="-88" y="1059" as="sourcePoint" />
            <mxPoint x="-89" y="1179" as="targetPoint" />
          </mxGeometry>
        </mxCell>
        <mxCell id="ajeVH8oz3hy0WPWtNNqJ-87" value="&amp;lt;&amp;lt;Extend&amp;gt;&amp;gt;" style="edgeLabel;html=1;align=center;verticalAlign=middle;resizable=0;points=[];" vertex="1" connectable="0" parent="ajeVH8oz3hy0WPWtNNqJ-86">
          <mxGeometry x="-0.0696" y="-1" relative="1" as="geometry">
            <mxPoint as="offset" />
          </mxGeometry>
        </mxCell>
        <mxCell id="ajeVH8oz3hy0WPWtNNqJ-88" value="" style="endArrow=none;dashed=1;html=1;rounded=0;exitX=0.436;exitY=1.029;exitDx=0;exitDy=0;exitPerimeter=0;entryX=0.569;entryY=0.024;entryDx=0;entryDy=0;entryPerimeter=0;" edge="1" parent="1" source="ajeVH8oz3hy0WPWtNNqJ-72" target="ajeVH8oz3hy0WPWtNNqJ-11">
          <mxGeometry width="50" height="50" relative="1" as="geometry">
            <mxPoint x="-194" y="891" as="sourcePoint" />
            <mxPoint x="-103" y="1001" as="targetPoint" />
          </mxGeometry>
        </mxCell>
        <mxCell id="ajeVH8oz3hy0WPWtNNqJ-89" value="&amp;lt;&amp;lt;Extend&amp;gt;&amp;gt;" style="edgeLabel;html=1;align=center;verticalAlign=middle;resizable=0;points=[];" vertex="1" connectable="0" parent="ajeVH8oz3hy0WPWtNNqJ-88">
          <mxGeometry x="-0.0696" y="-1" relative="1" as="geometry">
            <mxPoint as="offset" />
          </mxGeometry>
        </mxCell>
        <mxCell id="ajeVH8oz3hy0WPWtNNqJ-90" value="" style="endArrow=none;dashed=1;html=1;rounded=0;entryX=0.626;entryY=0.004;entryDx=0;entryDy=0;entryPerimeter=0;exitX=0;exitY=1;exitDx=0;exitDy=0;" edge="1" parent="1" source="ajeVH8oz3hy0WPWtNNqJ-74" target="ajeVH8oz3hy0WPWtNNqJ-11">
          <mxGeometry width="50" height="50" relative="1" as="geometry">
            <mxPoint x="-30" y="892" as="sourcePoint" />
            <mxPoint x="-69" y="998" as="targetPoint" />
          </mxGeometry>
        </mxCell>
        <mxCell id="ajeVH8oz3hy0WPWtNNqJ-91" value="&amp;lt;&amp;lt;Extend&amp;gt;&amp;gt;" style="edgeLabel;html=1;align=center;verticalAlign=middle;resizable=0;points=[];" vertex="1" connectable="0" parent="ajeVH8oz3hy0WPWtNNqJ-90">
          <mxGeometry x="-0.0696" y="-1" relative="1" as="geometry">
            <mxPoint as="offset" />
          </mxGeometry>
        </mxCell>
        <mxCell id="ajeVH8oz3hy0WPWtNNqJ-92" value="" style="endArrow=none;dashed=1;html=1;rounded=0;entryX=1;entryY=0.5;entryDx=0;entryDy=0;exitX=0;exitY=0.5;exitDx=0;exitDy=0;" edge="1" parent="1" source="ajeVH8oz3hy0WPWtNNqJ-75" target="ajeVH8oz3hy0WPWtNNqJ-11">
          <mxGeometry width="50" height="50" relative="1" as="geometry">
            <mxPoint x="90" y="1020" as="sourcePoint" />
            <mxPoint x="-59" y="1008" as="targetPoint" />
          </mxGeometry>
        </mxCell>
        <mxCell id="ajeVH8oz3hy0WPWtNNqJ-93" value="&amp;lt;&amp;lt;Extend&amp;gt;&amp;gt;" style="edgeLabel;html=1;align=center;verticalAlign=middle;resizable=0;points=[];" vertex="1" connectable="0" parent="ajeVH8oz3hy0WPWtNNqJ-92">
          <mxGeometry x="-0.0696" y="-1" relative="1" as="geometry">
            <mxPoint as="offset" />
          </mxGeometry>
        </mxCell>
        <mxCell id="ajeVH8oz3hy0WPWtNNqJ-94" value="" style="endArrow=none;dashed=1;html=1;rounded=0;exitX=0;exitY=0.5;exitDx=0;exitDy=0;entryX=0.916;entryY=0.799;entryDx=0;entryDy=0;entryPerimeter=0;" edge="1" parent="1" source="ajeVH8oz3hy0WPWtNNqJ-76" target="ajeVH8oz3hy0WPWtNNqJ-11">
          <mxGeometry width="50" height="50" relative="1" as="geometry">
            <mxPoint x="-10" y="912" as="sourcePoint" />
            <mxPoint x="-49" y="1018" as="targetPoint" />
          </mxGeometry>
        </mxCell>
        <mxCell id="ajeVH8oz3hy0WPWtNNqJ-95" value="&amp;lt;&amp;lt;Extend&amp;gt;&amp;gt;" style="edgeLabel;html=1;align=center;verticalAlign=middle;resizable=0;points=[];" vertex="1" connectable="0" parent="ajeVH8oz3hy0WPWtNNqJ-94">
          <mxGeometry x="-0.0696" y="-1" relative="1" as="geometry">
            <mxPoint as="offset" />
          </mxGeometry>
        </mxCell>
        <mxCell id="ajeVH8oz3hy0WPWtNNqJ-96" value="" style="endArrow=none;dashed=1;html=1;rounded=0;exitX=0.174;exitY=0.093;exitDx=0;exitDy=0;exitPerimeter=0;" edge="1" parent="1" source="ajeVH8oz3hy0WPWtNNqJ-78" target="ajeVH8oz3hy0WPWtNNqJ-11">
          <mxGeometry width="50" height="50" relative="1" as="geometry">
            <mxPoint y="922" as="sourcePoint" />
            <mxPoint x="-39" y="1028" as="targetPoint" />
          </mxGeometry>
        </mxCell>
        <mxCell id="ajeVH8oz3hy0WPWtNNqJ-97" value="&amp;lt;&amp;lt;Extend&amp;gt;&amp;gt;" style="edgeLabel;html=1;align=center;verticalAlign=middle;resizable=0;points=[];" vertex="1" connectable="0" parent="ajeVH8oz3hy0WPWtNNqJ-96">
          <mxGeometry x="-0.0696" y="-1" relative="1" as="geometry">
            <mxPoint as="offset" />
          </mxGeometry>
        </mxCell>
        <mxCell id="ajeVH8oz3hy0WPWtNNqJ-98" value="" style="endArrow=classic;html=1;rounded=0;" edge="1" parent="1">
          <mxGeometry width="50" height="50" relative="1" as="geometry">
            <mxPoint x="-79.5" y="810" as="sourcePoint" />
            <mxPoint x="-80" y="800" as="targetPoint" />
          </mxGeometry>
        </mxCell>
        <mxCell id="ajeVH8oz3hy0WPWtNNqJ-99" value="" style="endArrow=classic;html=1;rounded=0;" edge="1" parent="1">
          <mxGeometry width="50" height="50" relative="1" as="geometry">
            <mxPoint x="-170" y="910" as="sourcePoint" />
            <mxPoint x="-180" y="900" as="targetPoint" />
          </mxGeometry>
        </mxCell>
        <mxCell id="ajeVH8oz3hy0WPWtNNqJ-101" value="" style="endArrow=classic;html=1;rounded=0;entryX=0.219;entryY=1;entryDx=0;entryDy=0;entryPerimeter=0;" edge="1" parent="1">
          <mxGeometry width="50" height="50" relative="1" as="geometry">
            <mxPoint x="59.980000000000004" y="930" as="sourcePoint" />
            <mxPoint x="80.01999999999997" y="920" as="targetPoint" />
          </mxGeometry>
        </mxCell>
        <mxCell id="ajeVH8oz3hy0WPWtNNqJ-102" value="" style="endArrow=classic;html=1;rounded=0;entryX=0.7;entryY=0;entryDx=0;entryDy=0;entryPerimeter=0;" edge="1" parent="1">
          <mxGeometry width="50" height="50" relative="1" as="geometry">
            <mxPoint x="150" y="1020" as="sourcePoint" />
            <mxPoint x="165" y="1020" as="targetPoint" />
          </mxGeometry>
        </mxCell>
        <mxCell id="ajeVH8oz3hy0WPWtNNqJ-103" value="" style="endArrow=classic;html=1;rounded=0;entryX=-0.013;entryY=0.477;entryDx=0;entryDy=0;entryPerimeter=0;" edge="1" parent="1" target="ajeVH8oz3hy0WPWtNNqJ-76">
          <mxGeometry width="50" height="50" relative="1" as="geometry">
            <mxPoint x="70" y="1080" as="sourcePoint" />
            <mxPoint x="175" y="1030" as="targetPoint" />
          </mxGeometry>
        </mxCell>
        <mxCell id="ajeVH8oz3hy0WPWtNNqJ-104" value="" style="endArrow=classic;html=1;rounded=0;entryX=0.176;entryY=0.115;entryDx=0;entryDy=0;entryPerimeter=0;" edge="1" parent="1" target="ajeVH8oz3hy0WPWtNNqJ-78">
          <mxGeometry width="50" height="50" relative="1" as="geometry">
            <mxPoint x="-10" y="1130" as="sourcePoint" />
            <mxPoint x="98" y="1099" as="targetPoint" />
          </mxGeometry>
        </mxCell>
      </root>
    </mxGraphModel>
  </diagram>
</mxfile>
